<?xml version="1.0" encoding="UTF-8" standalone="no"?>
<svg width="800" height="500" viewBox="0 0 800 500" xmlns="http://www.w3.org/2000/svg">
  <defs>
    <!-- Gradient definitions -->
    <linearGradient id="bgGradient" x1="0%" y1="0%" x2="100%" y2="100%">
      <stop offset="0%" style="stop-color:#e0f7fa;stop-opacity:1" />
      <stop offset="100%" style="stop-color:#b2ebf2;stop-opacity:1" />
    </linearGradient>
    <linearGradient id="tealGradient" x1="0%" y1="0%" x2="100%" y2="100%">
      <stop offset="0%" style="stop-color:#14b8a6;stop-opacity:1" />
      <stop offset="100%" style="stop-color:#0d9488;stop-opacity:1" />
    </linearGradient>
    <linearGradient id="personGradient" x1="0%" y1="0%" x2="100%" y2="100%">
      <stop offset="0%" style="stop-color:#2563eb;stop-opacity:1" />
      <stop offset="100%" style="stop-color:#1e40af;stop-opacity:1" />
    </linearGradient>
    <linearGradient id="buttonGradient" x1="0%" y1="0%" x2="100%" y2="100%">
      <stop offset="0%" style="stop-color:#14b8a6;stop-opacity:1" />
      <stop offset="100%" style="stop-color:#0d9488;stop-opacity:1" />
    </linearGradient>
    <filter id="shadow" x="-20%" y="-20%" width="140%" height="140%">
      <feDropShadow dx="0" dy="4" stdDeviation="4" flood-color="#000000" flood-opacity="0.15"/>
    </filter>
    <clipPath id="personClip">
      <path d="M400,300 C460,300 500,250 500,180 C500,110 460,60 400,60 C340,60 300,110 300,180 C300,250 340,300 400,300 Z" />
      <path d="M300,300 L300,440 L500,440 L500,300 Z" />
    </clipPath>
    <!-- Pattern for transparency grid -->
    <pattern id="checkerPattern" width="20" height="20" patternUnits="userSpaceOnUse">
      <rect width="10" height="10" fill="#f3f4f6" />
      <rect x="10" y="0" width="10" height="10" fill="#e5e7eb" />
      <rect x="0" y="10" width="10" height="10" fill="#e5e7eb" />
      <rect x="10" y="10" width="10" height="10" fill="#f3f4f6" />
    </pattern>
  </defs>
  
  <!-- Background with soft curves -->
  <rect width="800" height="500" fill="url(#bgGradient)" rx="15" ry="15" />
  <path d="M0,350 Q400,300 800,420 L800,500 L0,500 Z" fill="#0d9488" fill-opacity="0.05"/>
  <path d="M0,400 Q400,370 800,450 L800,500 L0,500 Z" fill="#0d9488" fill-opacity="0.07"/>
  
  <!-- Before Image with realistic photo -->
  <g filter="url(#shadow)">
    <rect x="120" y="80" width="240" height="340" rx="12" ry="12" fill="white" stroke="#e5e7eb" stroke-width="2" />
    
    <!-- Photo content -->
    <rect x="130" y="90" width="220" height="280" fill="#f0f9ff" rx="8" ry="8" />
    
    <!-- Complex background pattern -->
    <rect x="130" y="90" width="220" height="280" fill="#dbeafe" opacity="0.4" rx="8" ry="8" />
    <circle cx="240" cy="230" r="120" fill="#93c5fd" opacity="0.3" />
    <circle cx="180" cy="170" r="60" fill="#60a5fa" opacity="0.3" />
    <circle cx="290" cy="260" r="70" fill="#3b82f6" opacity="0.2" />
    
    <!-- Person silhouette -->
    <path d="M240,170 C270,170 290,150 290,120 C290,90 270,70 240,70 C210,70 190,90 190,120 C190,150 210,170 240,170 Z" fill="url(#personGradient)" />
    <path d="M190,170 L190,320 L290,320 L290,170 Z" fill="url(#personGradient)" />
    
    <!-- UI elements: toolbar -->
    <rect x="130" y="90" width="220" height="30" fill="#f1f5f9" rx="8" ry="8" />
    <circle cx="145" cy="105" r="6" fill="#ef4444" />
    <circle cx="165" cy="105" r="6" fill="#f59e0b" />
    <circle cx="185" cy="105" r="6" fill="#10b981" />
  </g>
  
  <!-- Flow arrows -->
  <g>
    <path d="M380,230 L420,230" stroke="#0d9488" stroke-width="5" fill="none" stroke-linecap="round" />
    <path d="M410,210 L430,230 L410,250" stroke="#0d9488" stroke-width="5" fill="none" stroke-linecap="round" stroke-linejoin="round" />
  </g>
  
  <!-- After Image with transparent background -->
  <g filter="url(#shadow)">
    <rect x="440" y="80" width="240" height="340" rx="12" ry="12" fill="white" stroke="#e5e7eb" stroke-width="2" />
    
    <!-- Transparency grid background -->
    <rect x="450" y="90" width="220" height="280" fill="url(#checkerPattern)" rx="8" ry="8" />
    
    <!-- Person silhouette with no background -->
    <path d="M560,170 C590,170 610,150 610,120 C610,90 590,70 560,70 C530,70 510,90 510,120 C510,150 530,170 560,170 Z" fill="url(#personGradient)" />
    <path d="M510,170 L510,320 L610,320 L610,170 Z" fill="url(#personGradient)" />
    
    <!-- UI elements: control panel -->
    <rect x="450" y="90" width="220" height="30" fill="#f8fafc" rx="8" ry="8" />
    <rect x="535" y="97" width="50" height="16" rx="8" ry="8" fill="url(#tealGradient)" />
    <circle cx="510" cy="105" r="8" fill="#64748b" opacity="0.3" />
    <circle cx="470" cy="105" r="8" fill="#64748b" opacity="0.3" />
    <circle cx="610" cy="105" r="8" fill="#64748b" opacity="0.3" />
  </g>
  
  <!-- Magic wand effect around the second image -->
  <g>
    <circle cx="560" cy="80" r="10" fill="#fff" opacity="0.6" />
    <circle cx="580" cy="100" r="6" fill="#fff" opacity="0.5" />
    <circle cx="630" cy="150" r="8" fill="#fff" opacity="0.7" />
    <circle cx="680" cy="230" r="5" fill="#fff" opacity="0.5" />
    <circle cx="650" cy="310" r="7" fill="#fff" opacity="0.6" />
    <circle cx="590" cy="350" r="6" fill="#fff" opacity="0.5" />
    <circle cx="520" cy="330" r="9" fill="#fff" opacity="0.7" />
    <circle cx="470" cy="290" r="6" fill="#fff" opacity="0.5" />
    <circle cx="440" cy="220" r="8" fill="#fff" opacity="0.6" />
    <circle cx="460" cy="140" r="7" fill="#fff" opacity="0.7" />
  </g>
  
  <!-- Caption with modern UI style -->
  <g filter="url(#shadow)">
    <rect x="240" y="400" width="320" height="80" rx="12" ry="12" fill="white" opacity="0.95" />
    <text x="400" y="430" font-family="Arial, sans-serif" font-size="24" text-anchor="middle" fill="#111827" font-weight="bold">AI-Powered Background Removal</text>
    <text x="400" y="460" font-family="Arial, sans-serif" font-size="18" text-anchor="middle" fill="#4b5563">Fast, Accurate, and Easy to Use</text>
  </g>
  
  <!-- Digital UI elements -->
  <g>
    <circle cx="240" cy="30" r="15" fill="url(#tealGradient)" opacity="0.7" />
    <circle cx="560" cy="35" r="12" fill="url(#tealGradient)" opacity="0.5" />
    <circle cx="40" cy="180" r="18" fill="url(#tealGradient)" opacity="0.6" />
    <circle cx="760" cy="150" r="14" fill="url(#tealGradient)" opacity="0.6" />
    <circle cx="100" cy="400" r="10" fill="url(#tealGradient)" opacity="0.5" />
    <circle cx="700" cy="350" r="16" fill="url(#tealGradient)" opacity="0.7" />
  </g>
</svg>