<?xml version="1.0" encoding="UTF-8" standalone="no"?>
<svg width="200" height="200" viewBox="0 0 200 200" xmlns="http://www.w3.org/2000/svg">
  <defs>
    <linearGradient id="logoGradient" x1="0%" y1="0%" x2="100%" y2="100%">
      <stop offset="0%" style="stop-color:#14b8a6;stop-opacity:1" />
      <stop offset="100%" style="stop-color:#0d9488;stop-opacity:1" />
    </linearGradient>
  </defs>
  
  <!-- Outer Circle -->
  <circle cx="100" cy="100" r="90" fill="white" stroke="url(#logoGradient)" stroke-width="6" />
  
  <!-- Camera Lens Aperture -->
  <circle cx="100" cy="100" r="60" fill="url(#logoGradient)" />
  <circle cx="100" cy="100" r="40" fill="white" />
  <circle cx="100" cy="100" r="25" fill="url(#logoGradient)" />
  
  <!-- Aperture Blades -->
  <path d="M100,40 L120,85 L80,85 Z" fill="url(#logoGradient)" opacity="0.7" />
  <path d="M160,100 L115,120 L115,80 Z" fill="url(#logoGradient)" opacity="0.7" transform="rotate(72, 100, 100)" />
  <path d="M160,100 L115,120 L115,80 Z" fill="url(#logoGradient)" opacity="0.7" transform="rotate(144, 100, 100)" />
  <path d="M160,100 L115,120 L115,80 Z" fill="url(#logoGradient)" opacity="0.7" transform="rotate(216, 100, 100)" />
  <path d="M160,100 L115,120 L115,80 Z" fill="url(#logoGradient)" opacity="0.7" transform="rotate(288, 100, 100)" />
  
  <!-- Magic Sparkle -->
  <circle cx="75" cy="75" r="5" fill="white" />
  <path d="M75,70 L75,65 M80,75 L85,75 M75,80 L75,85 M70,75 L65,75" stroke="white" stroke-width="2" stroke-linecap="round" />
</svg>